<?xml version="1.0" encoding="UTF-8"?>
<svg width="16px" height="19px" viewBox="0 0 16 19" version="1.1" xmlns="http://www.w3.org/2000/svg" xmlns:xlink="http://www.w3.org/1999/xlink">
    <title>Ghost</title>
    <g id="Page-1" stroke="none" stroke-width="1" fill="none" fill-rule="evenodd">
        <g id="Artboard" transform="translate(-554.000000, -135.000000)" fill="#F07F0F">
            <path d="M565.734914,143.650717 C564.851358,143.650717 564.134462,142.936613 564.134462,142.054111 C564.134462,141.172649 564.851358,140.457476 565.734914,140.457476 C566.618526,140.457476 567.335365,141.172649 567.335365,142.054111 C567.335365,142.936613 566.618526,143.650717 565.734914,143.650717 M556.665651,142.054111 C556.665651,141.172649 557.382547,140.457476 558.266102,140.457476 C559.149714,140.457476 559.866554,141.172649 559.866554,142.054111 C559.866554,142.936613 559.149714,143.650717 558.266102,143.650717 C557.382547,143.650717 556.665651,142.936613 556.665651,142.054111 M562,135 C553.997686,135 554,142.450869 554,142.450869 L554,153.818149 L556.001467,151.159944 L557.999464,153.818149 L559.997686,151.159944 L561.996021,153.818149 L563.994384,151.159944 L565.992804,153.818149 L567.992776,151.159944 L570,153.818149 L570,142.450869 C570,142.450869 570.002286,135 562,135" id="Ghost"></path>
        </g>
    </g>
</svg>